<svg version="1.2" xmlns="http://www.w3.org/2000/svg" viewBox="0 0 1. 200" width="437" height="216">
	<title>New Project</title>
	<style>
		.s0 { fill: #d2ae6d } 
	</style>
	<path id="Path 1" fill-rule="evenodd" class="s0" d="m2 54.5l63.8-53.2 63.8 53.2v30.4l-63.8-51.8-63.8 51.8zm0 63.9l63.8-53.1 63.8 53.1v30.4l-63.8-51.8-63.8 51.8zm0 63.9l63.8-53.1 63.8 53.1v30.5l-63.8-51.9-63.8 51.9zm199.1-73.7l-12.6-13.8h-18.5v-7.6h20.6q4.7 0 7.1-2.6 2.4-2.5 2.4-7.4 0-4.8-2.5-7.2-2.5-2.3-7-2.3h-27v40.9h-8.6v-49.6h35.6q4.2 0 7.6 1.3 3.3 1.3 5.6 3.6 2.4 2.4 3.6 5.7 1.2 3.3 1.2 7.5 0 6.2-2.7 10.4-2.7 4.2-7.5 6l14.9 15.1zm16.8 0v-49.6h44.3v8.7h-35.7v32.2h35.7v8.7zm15-21.5v-7.3h27.4v7.3zm88.6 21.5l-7.5-12.5h-23.4l4.1-7h15.2l-11.1-18.5-22.5 38h-9.9l28.5-47.5q0.8-1.3 1.8-2 1-0.8 2.5-0.8 1.4 0 2.4 0.8 1 0.7 1.7 2l28.6 47.5zm15.7 0v-49.6h8.7v40.9h33.4v8.7zm-182.1 62.3v-8.6h37.2q3.5 0 5.4-1.8 1.8-1.8 1.8-4.7 0-3.2-1.8-4.8-1.9-1.6-5.4-1.6h-22.8q-3.4 0-6.3-1.1-2.8-1-4.7-2.9-2-1.9-3-4.5-1.1-2.5-1.1-5.6 0-3 1-5.6 1-2.5 2.9-4.4 2-1.8 4.8-2.9 2.9-1 6.6-1h35.6v8.6h-35.6q-3 0-4.7 1.6-1.6 1.6-1.6 4.5 0 2.9 1.7 4.4 1.6 1.6 4.5 1.6h22.7q7.6 0 11.5 3.5 3.9 3.6 3.9 10.8 0 3.2-0.9 5.8-1 2.7-2.9 4.6-1.9 2-4.8 3.1-2.9 1-6.8 1zm75.9 0v-40.9h-18.8v-8.6h46.3v8.6h-18.8v40.9zm55.8 0q-5.2 0-9.6-1.9-4.4-1.9-7.6-5.3-3.2-3.4-5-8-1.9-4.7-1.9-10.1 0-5.4 1.9-9.9 1.8-4.5 5-7.7 3.2-3.2 7.6-4.9 4.4-1.7 9.6-1.7h12.1q5.4 0 9.8 1.7 4.5 1.8 7.7 5 3.2 3.2 5 7.7 1.8 4.5 1.8 9.8 0 5.4-1.8 10.1-1.8 4.6-5.1 8-3.2 3.4-7.7 5.3-4.4 1.9-9.7 1.9zm12.1-8.6q3.4 0 6.2-1.2 2.9-1.3 5-3.4 2.1-2.2 3.2-5.2 1.2-3 1.2-6.4 0-3.5-1.2-6.5-1.1-3-3.2-5.1-2.1-2.1-5-3.3-2.8-1.2-6.2-1.2h-12.1q-3.4 0-6.2 1.2-2.8 1.2-4.9 3.3-2 2.1-3.2 5.1-1.1 2.9-1.1 6.5 0 3.4 1.1 6.4 1.2 3 3.2 5.2 2.1 2.1 4.9 3.4 2.8 1.2 6.2 1.2zm39.3-27.6v36.2h-8.2v-45q0-2.3 1.2-3.7 1.2-1.4 3.2-1.4 1 0 1.9 0.4 0.8 0.4 1.8 1.3l35 34.7v-36.2h8.2v45.4q0 2.4-1.2 3.8-1.2 1.4-3.1 1.4-2.1 0-3.9-1.9zm51.5 36.3v-49.6h44.2v8.7h-35.6v32.2h35.7v8.7zm14.9-21.5v-7.3h27.5v7.3z"/>
	<path id="Path 2" fill-rule="evenodd" class="s0" d="m173.1 209.4h-5.1l-6.4-8.9q-0.7 0.1-1.1 0.1-0.2 0-0.4 0-0.2 0-0.4-0.1v5.6q0 1.8 0.4 2.2 0.5 0.6 1.6 0.6h0.7v0.5h-8.1v-0.5h0.7q1.2 0 1.7-0.8 0.3-0.4 0.3-2v-12.3q0-1.8-0.4-2.2-0.5-0.6-1.6-0.6h-0.7v-0.5h6.9q3 0 4.4 0.4 1.5 0.4 2.5 1.6 1 1.2 1 2.8 0 1.8-1.2 3.1-1.1 1.3-3.5 1.8l3.9 5.4q1.3 1.9 2.3 2.5 1 0.6 2.5 0.8zm-13.4-9.8q0.2 0 0.4 0 0.2 0.1 0.3 0.1 2.7 0 4.1-1.2 1.4-1.2 1.4-3 0-1.8-1.1-2.9-1.1-1.1-3-1.1-0.8 0-2.1 0.3zm19.1-10.2q0.6 0 1 0.4 0.4 0.5 0.4 1 0 0.6-0.4 1-0.4 0.5-1 0.5-0.6 0-1-0.5-0.4-0.4-0.4-1 0-0.5 0.4-1 0.4-0.4 1-0.4zm1.2 6.7v10.3q0 1.2 0.1 1.6 0.2 0.4 0.6 0.6 0.3 0.2 1.2 0.2v0.5h-6.2v-0.5q0.9 0 1.3-0.2 0.3-0.2 0.5-0.6 0.1-0.4 0.1-1.6v-4.9q0-2.1-0.1-2.7-0.1-0.5-0.3-0.6-0.2-0.2-0.6-0.2-0.3 0-0.9 0.2l-0.2-0.5 3.9-1.6zm13.5 0v4.4h-0.4q-0.6-2.1-1.4-2.8-0.8-0.7-2.1-0.8-1 0-1.6 0.6-0.6 0.5-0.6 1.1 0 0.8 0.5 1.3 0.4 0.6 1.7 1.3l2.1 0.9q2.8 1.4 2.8 3.7 0 1.7-1.3 2.8-1.3 1.1-3 1.1-1.2 0-2.7-0.4-0.4-0.2-0.7-0.2-0.3 0-0.5 0.4h-0.5v-4.6h0.5q0.4 2 1.5 3 1.1 0.9 2.5 0.9 0.9 0 1.5-0.5 0.6-0.6 0.6-1.4 0-0.9-0.7-1.6-0.6-0.7-2.7-1.6-2-1-2.6-1.9-0.6-0.8-0.6-2 0-1.6 1-2.6 1.1-1.1 2.8-1.1 0.8 0 1.9 0.3 0.7 0.3 0.9 0.3 0.2 0 0.4-0.1 0.1-0.1 0.3-0.5zm6.8 5.2q-0.1 2.9 1.3 4.5 1.4 1.6 3.3 1.6 1.3 0 2.2-0.7 0.9-0.7 1.6-2.4l0.4 0.3q-0.3 1.9-1.7 3.5-1.4 1.6-3.5 1.6-2.3 0-4-1.8-1.6-1.8-1.6-4.8 0-3.3 1.7-5.1 1.6-1.9 4.2-1.9 2.1 0 3.5 1.4 1.4 1.5 1.4 3.8zm0-0.8h5.9q-0.1-1.2-0.3-1.7-0.3-0.8-1-1.2-0.7-0.5-1.5-0.5-1.1 0-2 0.9-1 0.9-1.1 2.5zm33-10.2h6.6v0.6h-0.4q-0.3 0-1 0.3-0.7 0.3-1.3 0.9-0.6 0.6-1.4 2l-4.6 7.1v4.8q0 1.8 0.4 2.2 0.6 0.6 1.7 0.6h0.6v0.5h-8.1v-0.5h0.7q1.2 0 1.7-0.7 0.3-0.5 0.3-2.1v-4.4l-5.1-8q-1-1.4-1.3-1.8-0.3-0.3-1.4-0.8-0.2-0.1-0.8-0.1v-0.6h8.1v0.6h-0.4q-0.7 0-1.2 0.3-0.6 0.3-0.6 0.9 0 0.5 0.9 1.8l3.9 6.1 3.7-5.8q0.9-1.3 0.9-2 0-0.4-0.2-0.7-0.2-0.3-0.6-0.5-0.4-0.1-1.1-0.1zm13.1 5.7q2.9 0 4.7 2.2 1.4 1.9 1.4 4.4 0 1.7-0.8 3.4-0.8 1.8-2.2 2.7-1.5 0.9-3.3 0.9-2.9 0-4.6-2.3-1.4-2-1.4-4.4 0-1.7 0.9-3.5 0.8-1.7 2.3-2.5 1.4-0.9 3-0.9zm-0.4 0.9q-0.8 0.1-1.5 0.5-0.8 0.4-1.2 1.5-0.5 1.1-0.5 2.9 0 2.7 1.1 4.8 1.1 2 2.9 2 1.4 0 2.3-1.1 0.8-1.1 0.8-3.9 0-3.4-1.4-5.3-1-1.3-2.5-1.4zm21.4-0.5v7.8q0 2.2 0.1 2.7 0.1 0.5 0.3 0.6 0.3 0.2 0.6 0.2 0.4 0 1-0.2l0.2 0.5-3.9 1.6h-0.6v-2.7q-1.7 1.8-2.5 2.2-0.9 0.5-1.9 0.5-1 0-1.8-0.6-0.8-0.7-1.1-1.6-0.3-1-0.3-2.8v-5.7q0-0.9-0.2-1.3-0.2-0.3-0.6-0.5-0.4-0.2-1.4-0.2v-0.5h4.5v8.6q0 1.8 0.6 2.3 0.6 0.6 1.5 0.6 0.6 0 1.4-0.4 0.7-0.4 1.8-1.4v-7.3q0-1.1-0.4-1.5-0.4-0.4-1.7-0.4v-0.5zm8.7-0.4v2.9q1.5-2.9 3.2-2.9 0.8 0 1.3 0.5 0.5 0.5 0.5 1.1 0 0.5-0.4 0.9-0.3 0.4-0.8 0.4-0.5 0-1.1-0.5-0.6-0.5-0.9-0.5-0.3 0-0.6 0.3-0.6 0.6-1.2 1.9v6.1q0 1.1 0.2 1.6 0.2 0.4 0.7 0.7 0.4 0.2 1.3 0.2v0.5h-6.6v-0.5q1 0 1.5-0.3 0.3-0.2 0.5-0.7 0-0.3 0-1.4v-4.9q0-2.2-0.1-2.7 0-0.4-0.3-0.6-0.2-0.2-0.6-0.2-0.4 0-1 0.2l-0.1-0.5 3.9-1.6zm16 13.2v-0.5h0.7q1.2 0 1.7-0.8 0.4-0.4 0.4-2v-12.3q0-1.8-0.4-2.2-0.6-0.6-1.7-0.6h-0.7v-0.5h7.7q4.3 0 6.5 0.9 2.2 1 3.6 3.2 1.3 2.3 1.3 5.2 0 4-2.4 6.7-2.7 2.9-8.2 2.9zm5.4-1.4q1.8 0.4 3 0.4 3.2 0 5.3-2.3 2.2-2.2 2.2-6.1 0-4-2.2-6.2-2.1-2.3-5.4-2.3-1.3 0-2.9 0.4zm21.2-11.8v2.9q1.6-2.9 3.3-2.9 0.7 0 1.2 0.5 0.5 0.5 0.5 1.1 0 0.5-0.3 0.9-0.4 0.4-0.9 0.4-0.5 0-1.1-0.5-0.6-0.5-0.9-0.5-0.2 0-0.5 0.3-0.6 0.6-1.3 1.9v6.1q0 1.1 0.3 1.6 0.2 0.4 0.6 0.7 0.5 0.2 1.3 0.2v0.5h-6.5v-0.5q1 0 1.4-0.3 0.4-0.2 0.5-0.7 0.1-0.3 0.1-1.4v-4.9q0-2.3-0.1-2.7-0.1-0.4-0.3-0.6-0.3-0.2-0.6-0.2-0.5 0-1 0.2l-0.1-0.5 3.8-1.6zm9.7 5.2q0 2.9 1.4 4.5 1.4 1.6 3.3 1.6 1.2 0 2.2-0.7 0.9-0.7 1.5-2.4l0.4 0.3q-0.2 1.9-1.7 3.5-1.4 1.6-3.5 1.6-2.3 0-3.9-1.8-1.7-1.8-1.7-4.8 0-3.3 1.7-5.1 1.7-1.9 4.2-1.9 2.2 0 3.6 1.4 1.3 1.5 1.3 3.8zm0-0.8h6q-0.1-1.2-0.3-1.7-0.4-0.8-1.1-1.2-0.7-0.5-1.4-0.5-1.2 0-2.1 0.9-0.9 0.9-1.1 2.5zm19.6 7q-1.9 1.5-2.5 1.7-0.7 0.4-1.6 0.4-1.3 0-2.1-0.9-0.9-0.9-0.9-2.4 0-1 0.4-1.6 0.6-1 2-1.8 1.4-0.9 4.7-2.1v-0.5q0-1.9-0.6-2.6-0.6-0.7-1.8-0.7-0.8 0-1.3 0.5-0.6 0.4-0.6 1.1l0.1 0.8q0 0.6-0.4 1-0.3 0.3-0.8 0.3-0.6 0-0.9-0.4-0.3-0.3-0.3-1 0-1.2 1.2-2.2 1.2-1 3.5-1 1.7 0 2.8 0.6 0.8 0.4 1.2 1.4 0.2 0.5 0.2 2.4v4.3q0 1.9 0.1 2.3 0.1 0.4 0.2 0.5 0.2 0.2 0.4 0.2 0.2 0 0.4-0.1 0.3-0.2 1.1-1v0.7q-1.5 2.1-3 2.1-0.7 0-1.1-0.4-0.4-0.5-0.4-1.6zm0-1v-4.8q-2.1 0.8-2.7 1.2-1.1 0.6-1.6 1.2-0.5 0.7-0.5 1.5 0 1 0.6 1.7 0.6 0.6 1.4 0.6 1.1 0 2.8-1.4zm11.1-7.6q1.4-1.4 1.6-1.7 0.7-0.5 1.4-0.8 0.7-0.3 1.4-0.3 1.2 0 2.1 0.7 0.8 0.7 1.1 2.1 1.5-1.7 2.5-2.2 0.9-0.6 2-0.6 1 0 1.8 0.6 0.8 0.5 1.3 1.7 0.3 0.8 0.3 2.5v5.5q0 1.2 0.1 1.7 0.2 0.3 0.5 0.5 0.4 0.2 1.3 0.2v0.5h-6.3v-0.5h0.3q0.8 0 1.2-0.3 0.4-0.2 0.5-0.7 0-0.3 0-1.4v-5.5q0.1-1.5-0.3-2.2-0.6-0.9-1.8-0.9-0.7 0-1.5 0.4-0.7 0.4-1.8 1.4v0.1 0.6 6.1q0 1.3 0.2 1.6 0.1 0.4 0.5 0.6 0.4 0.2 1.4 0.2v0.5h-6.4v-0.5q1 0 1.4-0.2 0.4-0.3 0.6-0.8 0-0.2 0-1.4v-5.5q0-1.5-0.4-2.2-0.6-0.9-1.7-0.9-0.8 0-1.5 0.4-1.2 0.6-1.8 1.4v6.8q0 1.3 0.2 1.6 0.1 0.4 0.5 0.6 0.3 0.2 1.4 0.2v0.5h-6.4v-0.5q0.9 0 1.3-0.2 0.3-0.2 0.5-0.6 0.2-0.4 0.2-1.6v-4.9q0-2.1-0.1-2.7-0.1-0.4-0.4-0.6-0.2-0.2-0.5-0.2-0.4 0-1 0.2l-0.2-0.5 3.9-1.6h0.6zm28.5-2.7v4.3h-0.5q-0.5-2-1.4-2.7-0.8-0.8-2.1-0.8-0.9 0-1.5 0.5-0.6 0.6-0.6 1.2 0 0.8 0.4 1.3 0.4 0.6 1.8 1.2l2 1q2.8 1.4 2.8 3.7 0 1.7-1.3 2.8-1.3 1-2.9 1-1.2 0-2.7-0.4-0.5-0.1-0.8-0.1-0.3 0-0.5 0.3h-0.4v-4.5h0.4q0.4 1.9 1.5 2.9 1.1 1 2.5 1 1 0 1.6-0.5 0.6-0.6 0.6-1.4 0-1-0.7-1.6-0.7-0.7-2.7-1.7-2-1-2.7-1.8-0.6-0.8-0.6-2 0-1.6 1.1-2.6 1.1-1.1 2.8-1.1 0.7 0 1.8 0.3 0.7 0.2 1 0.2 0.2 0 0.3-0.1 0.1-0.1 0.3-0.4zm-224.4-162h0.1l4.2-8q0.1-0.3 0.3-0.4 0.1 0 0.3-0.1h3.8q0.3 0 0.3 0.3 0 0.1-0.2 0.3-1.7 2.9-3.3 5.8-1.7 2.9-3.4 5.8v8q0 0.6-0.7 0.6h-2.8q-0.6 0-0.6-0.6v-8l-6.7-11.5q-0.1-0.1-0.1-0.2-0.1-0.2-0.1-0.3 0-0.2 0.3-0.2h3.8q0.1 0.1 0.2 0.1 0.1 0 0.1 0 0.1 0.1 0.2 0.2 0 0.1 0.1 0.2zm15.5 3.9q0 1.2 0.4 2.1 0.3 1 0.9 1.6 0.6 0.7 1.5 1 0.8 0.3 1.9 0.3 1 0 1.9-0.3 0.9-0.4 1.5-1 0.6-0.7 0.9-1.6 0.3-1 0.3-2.1v-11.7q0-0.3 0.2-0.4 0.2-0.2 0.5-0.2h2.7q0.3 0 0.5 0.2 0.2 0.1 0.2 0.4v11.9q0 2.1-0.7 3.8-0.7 1.6-1.9 2.7-1.2 1-2.8 1.6-1.6 0.5-3.3 0.5-1.8 0-3.4-0.6-1.6-0.5-2.7-1.6-1.2-1.1-1.9-2.7-0.7-1.6-0.7-3.7v-11.9q0-0.2 0.1-0.4 0.2-0.2 0.4-0.2h2.9q0.2 0 0.4 0.2 0.2 0.1 0.2 0.4zm30.4-0.3q0-0.3 0.2-0.4 0.2-0.2 0.5-0.2h2.2q0.3 0 0.5 0.2 0.2 0.1 0.2 0.4v6.5q0 0.1-0.1 0.3-0.1 0.1-0.3 0.3 0 0 0 0 0 0 0 0-0.7 0.5-1.4 0.8-0.8 0.4-1.6 0.6-0.8 0.3-1.7 0.4-0.9 0.1-1.7 0.1-1.5 0-2.9-0.3-1.3-0.4-2.5-1.1-1.2-0.7-2.2-1.7-1-1-1.7-2.1-0.7-1.2-1-2.6-0.4-1.3-0.4-2.8 0-1.5 0.4-2.9 0.3-1.3 1-2.5 0.7-1.2 1.7-2.2 1-1 2.2-1.7 1.2-0.7 2.5-1 1.4-0.4 2.9-0.4 1 0 2 0.1 1 0.2 1.9 0.6 0.3 0.1 0.8 0.3 0.5 0.2 0.9 0.5 0.5 0.2 0.8 0.5 0.3 0.3 0.3 0.5 0 0.1-0.2 0.4-0.1 0.2-0.3 0.5-0.2 0.3-0.4 0.7-0.2 0.3-0.5 0.6-0.2 0.2-0.4 0.4-0.2 0.2-0.3 0.2 0 0-0.2-0.1-0.1 0-0.2-0.1-0.9-0.6-2-1-1.1-0.3-2.2-0.3-1.5 0-2.8 0.5-1.2 0.6-2.1 1.5-0.9 1-1.4 2.2-0.5 1.3-0.5 2.7 0 1.4 0.5 2.6 0.6 1.3 1.5 2.2 0.9 0.9 2.1 1.5 1.2 0.5 2.6 0.5 0.5 0 1-0.1 0.5 0 1-0.2 0.4-0.1 0.8-0.2 0.3-0.2 0.5-0.3z"/>
	<path id="Path 3" fill-rule="evenodd" class="s0" d="m215.6 46q0-0.2 0.1-0.5 0.1-0.2 0.2-0.4l7.5-18.8q0.1-0.1 0.3-0.3 0.1-0.2 0.5-0.2h2.2q0.4 0 0.5 0.1 0.2 0.2 0.2 0.3l0.5 1.1 7.4 18.5q0 0.1 0 0.2 0 0.1 0 0.1 0 0.5-0.6 0.5h-2.8q-0.3 0-0.4-0.2-0.2-0.1-0.3-0.4l-0.3-0.6q-0.2-0.7-0.5-1.3-0.3-0.7-0.5-1.4h-8.6q-0.4 1-0.8 1.8-0.3 0.9-0.5 1.5-0.2 0.6-0.8 0.6h-2.8q-0.2 0-0.4-0.1-0.1-0.1-0.2-0.3 0-0.1 0.1-0.2zm9.7-14.9q-0.8 1.9-1.5 4-0.8 2.1-1.5 4h6zm12.7-4.7q0-0.3 0.1-0.5 0.2-0.1 0.5-0.1h3.2q0.2 0 0.4 0.1 0.1 0 0.3 0.2 2.4 3.5 4.7 6.8 2.4 3.4 4.8 6.8v-13.4q0-0.3 0.2-0.4 0.1-0.1 0.4-0.1h2.7q0.3 0 0.5 0.1 0.2 0.2 0.2 0.5v19.6q0 0.6-0.7 0.6h-3q-0.3 0-0.6-0.4-2.5-3.6-4.9-7.2-2.4-3.5-4.9-7.1v14q0 0.3-0.1 0.5-0.2 0.2-0.5 0.2h-2.7q-0.3 0-0.5-0.2-0.1-0.2-0.1-0.4zm40.3 9.7q0 1.5-0.4 2.8-0.3 1.4-1 2.5-0.7 1.2-1.7 2.1-0.9 1-2.1 1.6-1.2 0.7-2.5 1-1.4 0.4-2.9 0.4h-6.7q-0.2 0-0.4-0.1-0.2-0.1-0.2-0.5v-19.5q0-0.7 0.6-0.7h6.7q2.3 0 4.2 0.8 1.9 0.8 3.3 2.2 1.5 1.4 2.3 3.3 0.8 1.9 0.8 4.1zm-13.9-6.5v13.1h1.4q1 0 2-0.1 1.4 0 2.6-0.5 1.2-0.6 2-1.4 0.9-0.9 1.4-2.1 0.5-1.2 0.4-2.6 0.1-1.4-0.5-2.6-0.5-1.2-1.4-2-0.9-0.9-2.1-1.4-1.2-0.4-2.6-0.4zm17.7-3.3q0-0.2 0.2-0.4 0.1-0.2 0.4-0.2h2.8q0.2 0 0.4 0.2 0.3 0.2 0.3 0.4v7.3h9.3v-7.3q0-0.2 0.2-0.4 0.2-0.2 0.4-0.2h2.8q0.3 0 0.5 0.2 0.2 0.1 0.2 0.4v19.6q0 0.6-0.7 0.6h-2.8q-0.6 0-0.6-0.6v-8.5h-9.3v8.5q0 0.6-0.7 0.6h-2.8q-0.6 0-0.6-0.6zm20.6 19.7q0-0.3 0.1-0.5 0.1-0.3 0.2-0.5l7.5-18.7q0.1-0.2 0.3-0.4 0.1-0.2 0.5-0.2h2.2q0.4 0 0.5 0.2 0.1 0.2 0.2 0.3l0.5 1.1 7.4 18.5q0 0 0 0.1 0 0.1 0 0.2 0 0.4-0.6 0.4h-2.8q-0.3 0-0.4-0.1-0.2-0.1-0.3-0.4l-0.3-0.6q-0.2-0.7-0.5-1.4-0.3-0.7-0.5-1.3h-8.7q-0.3 0.9-0.7 1.8-0.3 0.9-0.5 1.5-0.2 0.5-0.8 0.5h-2.8q-0.2 0-0.4-0.1-0.2-0.1-0.2-0.3 0-0.1 0.1-0.1zm9.7-14.9q-0.8 1.9-1.5 4-0.8 2-1.5 3.9h5.9zm12.7-4.6q0-0.7 0.7-0.7h8.5q1.4 0 2.7 0.5 1.2 0.6 2.1 1.5 0.9 0.9 1.5 2.1 0.5 1.3 0.5 2.6 0 1-0.3 1.9-0.2 0.9-0.7 1.6-0.5 0.8-1.2 1.4-0.6 0.6-1.4 1l3.6 7.2q0.1 0.1 0.1 0.3 0.1 0.1 0.1 0.3 0 0.4-0.5 0.4h-3.2q-0.5 0-0.7-0.5l-3.4-6.7q-0.2 0-0.5 0-0.3 0-0.7 0-0.5 0-1.2 0-0.7 0-1.9 0v6.6q0 0.6-0.6 0.6h-2.8q-0.3 0-0.5-0.1-0.2-0.2-0.2-0.5zm11.8 6.1q0-0.6-0.2-1.2-0.2-0.5-0.6-1-0.4-0.4-1-0.7-0.5-0.3-1.2-0.3-0.5 0-1-0.1-0.4 0-0.9 0h-2.8v6.5c0.2 0 4.1 0 4.2 0q0.3 0 0.6 0 0.6 0 1.2-0.3 0.5-0.3 0.9-0.7 0.4-0.4 0.6-1 0.2-0.6 0.2-1.2z"/>
</svg>